<mxfile host="app.diagrams.net" modified="2020-11-02T17:24:55.121Z" agent="5.0 (Windows NT 10.0; Win64; x64) AppleWebKit/537.36 (KHTML, like Gecko) Chrome/86.0.4240.111 Safari/537.36" etag="6yBlrLlaeEhvd4zpJjsU" version="13.8.8" type="github">
  <diagram id="tCrZVsAJD3Z_AQQltKlu" name="Page-1">
    <mxGraphModel dx="814" dy="451" grid="1" gridSize="10" guides="1" tooltips="1" connect="1" arrows="1" fold="1" page="1" pageScale="1" pageWidth="850" pageHeight="1100" math="0" shadow="0">
      <root>
        <mxCell id="0" />
        <mxCell id="1" parent="0" />
        <mxCell id="g7xz13wULXLpFYFkE3Io-3" value="" style="edgeStyle=orthogonalEdgeStyle;rounded=0;orthogonalLoop=1;jettySize=auto;html=1;" edge="1" parent="1" source="g7xz13wULXLpFYFkE3Io-1" target="g7xz13wULXLpFYFkE3Io-2">
          <mxGeometry relative="1" as="geometry" />
        </mxCell>
        <mxCell id="g7xz13wULXLpFYFkE3Io-1" value="Start" style="ellipse;whiteSpace=wrap;html=1;aspect=fixed;" vertex="1" parent="1">
          <mxGeometry x="385" width="80" height="80" as="geometry" />
        </mxCell>
        <mxCell id="g7xz13wULXLpFYFkE3Io-60" value="" style="edgeStyle=orthogonalEdgeStyle;rounded=0;orthogonalLoop=1;jettySize=auto;html=1;" edge="1" parent="1" source="g7xz13wULXLpFYFkE3Io-2">
          <mxGeometry relative="1" as="geometry">
            <mxPoint x="425" y="220" as="targetPoint" />
          </mxGeometry>
        </mxCell>
        <mxCell id="g7xz13wULXLpFYFkE3Io-2" value="Customer Number&lt;br&gt;N&lt;br&gt;Monthly spending&lt;br&gt;A, A&#39;&lt;br&gt;Billing spending&lt;br&gt;B" style="whiteSpace=wrap;html=1;" vertex="1" parent="1">
          <mxGeometry x="340" y="90" width="170" height="80" as="geometry" />
        </mxCell>
        <mxCell id="g7xz13wULXLpFYFkE3Io-53" value="YES" style="edgeStyle=orthogonalEdgeStyle;rounded=0;orthogonalLoop=1;jettySize=auto;html=1;" edge="1" parent="1" source="g7xz13wULXLpFYFkE3Io-46">
          <mxGeometry relative="1" as="geometry">
            <mxPoint x="425.03999999999996" y="330" as="targetPoint" />
          </mxGeometry>
        </mxCell>
        <mxCell id="g7xz13wULXLpFYFkE3Io-68" value="NO" style="edgeStyle=orthogonalEdgeStyle;rounded=0;orthogonalLoop=1;jettySize=auto;html=1;entryX=0.5;entryY=0;entryDx=0;entryDy=0;" edge="1" parent="1" source="g7xz13wULXLpFYFkE3Io-46" target="g7xz13wULXLpFYFkE3Io-62">
          <mxGeometry relative="1" as="geometry" />
        </mxCell>
        <mxCell id="g7xz13wULXLpFYFkE3Io-46" value="A - A&#39; &amp;gt;= 15000" style="rhombus;whiteSpace=wrap;html=1;" vertex="1" parent="1">
          <mxGeometry x="380" y="220" width="90" height="80" as="geometry" />
        </mxCell>
        <mxCell id="g7xz13wULXLpFYFkE3Io-57" value="YES" style="edgeStyle=orthogonalEdgeStyle;rounded=0;orthogonalLoop=1;jettySize=auto;html=1;" edge="1" parent="1" source="g7xz13wULXLpFYFkE3Io-54" target="g7xz13wULXLpFYFkE3Io-56">
          <mxGeometry relative="1" as="geometry" />
        </mxCell>
        <mxCell id="g7xz13wULXLpFYFkE3Io-63" value="NO" style="edgeStyle=orthogonalEdgeStyle;rounded=0;orthogonalLoop=1;jettySize=auto;html=1;" edge="1" parent="1" source="g7xz13wULXLpFYFkE3Io-54" target="g7xz13wULXLpFYFkE3Io-62">
          <mxGeometry relative="1" as="geometry" />
        </mxCell>
        <mxCell id="g7xz13wULXLpFYFkE3Io-54" value="B - B&#39; &amp;gt; =10000" style="rhombus;whiteSpace=wrap;html=1;" vertex="1" parent="1">
          <mxGeometry x="380" y="330" width="90" height="80" as="geometry" />
        </mxCell>
        <mxCell id="g7xz13wULXLpFYFkE3Io-56" value="Print out&amp;nbsp;&lt;br&gt;Customer Number: N&lt;br&gt;Earn 500$" style="whiteSpace=wrap;html=1;" vertex="1" parent="1">
          <mxGeometry x="180" y="340" width="120" height="60" as="geometry" />
        </mxCell>
        <mxCell id="g7xz13wULXLpFYFkE3Io-62" value="Print Out &lt;br&gt;No Promotion" style="whiteSpace=wrap;html=1;" vertex="1" parent="1">
          <mxGeometry x="560" y="340" width="120" height="60" as="geometry" />
        </mxCell>
      </root>
    </mxGraphModel>
  </diagram>
</mxfile>
